Coordinates
version=1
nRows=19
nColumns=27
inDegrees=yes

Units are S.I. units (second, meters, Newtons, ...)
If the header above contains a line with 'inDegrees', this indicates whether rotational values are in degrees (yes) or radians (no).

endheader
time	pelvis_rotation	pelvis_tilt	pelvis_list	pelvis_tx	pelvis_ty	pelvis_tz	hip_flexion_r	hip_adduction_r	hip_rotation_r	knee_angle_r	knee_rotation_r	knee_adduction_r	knee_angle_r_beta	ankle_angle_r	subtalar_angle_r	mtp_angle_r	hip_flexion_l	hip_adduction_l	hip_rotation_l	knee_angle_l	knee_rotation_l	knee_adduction_l	knee_angle_l_beta	ankle_angle_l	subtalar_angle_l	mtp_angle_l
     10.81000000	      1.48916064	    -38.53112645	      4.13737063	     -0.11550935	      0.86624499	     -1.20587392	     71.59521060	    -15.60774422	    -19.10616785	     40.80318332	      2.23290050	      7.62849184	      0.71214989	      3.35615436	     -0.49124196	      0.00000000	     68.51669177	     -9.59885561	    -18.46747983	     35.17353693	      2.21418190	     -6.18790358	      0.61389403	      0.83086506	      3.31554148	      0.00000000
     10.81500000	      0.21943526	    -36.59665131	      3.71211089	     -0.11137007	      0.86841995	     -1.20502945	     68.93620406	    -14.68764803	    -19.19085620	     39.81265185	      2.10718452	      8.46409201	      0.69486186	      3.09962840	     -1.15696534	      0.00000000	     65.49819668	    -10.52650821	    -20.67823842	     34.52215042	      2.12528781	     -7.49401731	      0.60252519	      1.05585322	      3.49540364	      0.00000000
     10.82000000	     -0.43383272	    -36.47471351	      4.11815751	     -0.11088934	      0.86869639	     -1.20485234	     69.09105211	    -14.41663930	    -17.88553424	     39.84456566	      2.21337829	      8.27721110	      0.69541886	      3.03307400	     -1.32565392	      0.00000000	     64.91014810	    -10.71111889	    -21.90347129	     34.32827881	      2.11462917	     -7.55164173	      0.59914149	      1.11549935	      3.72454266	      0.00000000
     10.82500000	      0.27116226	    -36.40982882	      3.75326887	     -0.11009375	      0.86936075	     -1.20467034	     68.49228369	    -14.69501786	    -19.08332850	     39.56500490	      2.24529623	      8.35602178	      0.69053960	      3.07578318	     -1.20921196	      0.00000000	     65.02300216	    -10.40939598	    -20.60842323	     34.16372914	      2.14666386	     -7.26370557	      0.59626956	      1.00110823	      3.62681075	      0.00000000
     10.83000000	     -0.54552795	    -36.19823227	      4.18685288	     -0.10944795	      0.86961257	     -1.20443051	     68.61221636	    -14.33371502	    -17.62281478	     39.62756091	      2.29311426	      8.13337764	      0.69163141	      3.05373215	     -1.30719376	      0.00000000	     64.26907885	    -10.68160676	    -22.10767944	     33.97211835	      2.14157352	     -7.42129789	      0.59292532	      1.09451162	      3.87709969	      0.00000000
     10.83500000	     -0.41479436	    -36.00179194	      3.84313553	     -0.10851581	      0.87021729	     -1.20399359	     68.05008244	    -14.21805130	    -18.19668064	     39.34603623	      2.25697476	      8.14759161	      0.68671788	      3.02473831	     -1.27177423	      0.00000000	     64.05729004	    -10.76409109	    -21.60383781	     33.86733193	      2.18661330	     -7.30669953	      0.59109645	      1.08666334	      3.93183790	      0.00000000
     10.84000000	     -0.51323525	    -35.78211563	      4.02271973	     -0.10769227	      0.87063728	     -1.20391633	     67.80307948	    -14.23842992	    -17.87841346	     39.29646508	      2.30376047	      8.06943014	      0.68585270	      3.06482220	     -1.23151494	      0.00000000	     63.58295333	    -10.66886377	    -21.90885140	     33.63895684	      2.16837406	     -7.27237858	      0.58711055	      1.06867575	      4.00127318	      0.00000000
     10.84500000	     -0.51355206	    -35.67997165	      3.84102267	     -0.10696459	      0.87106541	     -1.20358965	     67.49680132	    -14.11424242	    -18.05241939	     39.12760501	      2.30338120	      8.01401880	      0.68290554	      3.05844894	     -1.22283141	      0.00000000	     63.42670704	    -10.74588296	    -21.69140059	     33.57336663	      2.18887867	     -7.16525438	      0.58596579	      1.08451386	      4.06068619	      0.00000000
     10.85000000	     -0.55301367	    -35.45828890	      3.84175923	     -0.10607619	      0.87154106	     -1.20340687	     67.13247764	    -14.07329830	    -18.01305128	     38.99198647	      2.32169573	      7.96233007	      0.68053855	      3.07808007	     -1.19112484	      0.00000000	     63.02907529	    -10.71737229	    -21.72729104	     33.39316944	      2.19385712	     -7.11619708	      0.58282075	      1.07738516	      4.09721427	      0.00000000
     10.85500000	      0.51428955	    -36.97693385	      3.87234633	     -0.10854078	      0.87053659	     -1.20342909	     68.90587971	    -14.58940021	    -18.14951484	     39.50568010	      2.47147766	      7.02680420	      0.68950419	      3.29197483	     -0.58746220	      0.00000000	     65.37487945	    -10.09923492	    -19.36475199	     33.80531403	      2.31285403	     -5.71810289	      0.59001403	      0.97121219	      4.16590842	      0.00000000
     10.86000000	     -0.58585392	    -35.15777713	      3.29927646	     -0.10440177	      0.87247513	     -1.20259033	     66.30418386	    -13.68491909	    -18.55777886	     38.53326580	      2.27170590	      7.87862983	      0.67253236	      3.05417237	     -1.18026221	      0.00000000	     62.64524698	    -11.00175939	    -21.11923441	     33.29029503	      2.28143432	     -6.88660355	      0.58102526	      1.11960009	      4.22824555	      0.00000000
     10.86500000	     -0.07546168	    -34.84889176	      3.40097870	     -0.10327714	      0.87303430	     -1.20282944	     65.72405666	    -14.09767584	    -19.16232044	     38.44430155	      2.26608963	      7.94847458	      0.67097964	      3.18755280	     -0.92110548	      0.00000000	     62.26385823	    -10.51372428	    -20.59244948	     32.98692982	      2.20758780	     -6.74136104	      0.57573054	      1.01244928	      4.11469892	      0.00000000
     10.87000000	     -0.66923074	    -34.63761874	      3.46620824	     -0.10252222	      0.87334918	     -1.20248050	     65.58701870	    -13.71043798	    -18.38429695	     38.35096315	      2.26076129	      7.77163666	      0.66935058	      3.14612716	     -0.97748190	      0.00000000	     61.72279197	    -10.82184326	    -21.35084030	     32.89901247	      2.24972317	     -6.78594780	      0.57419609	      1.09266719	      4.25980277	      0.00000000
     10.87500000	      0.28950938	    -34.59212662	      3.14994450	     -0.10163374	      0.87393924	     -1.20252596	     64.98373961	    -14.14162769	    -19.87727383	     38.12690266	      2.24449142	      7.91549465	      0.66543998	      3.25354924	     -0.77441838	      0.00000000	     61.94731239	    -10.34038516	    -19.73601881	     32.75467022	      2.23126244	     -6.39451312	      0.57167684	      0.94824895	      4.11092828	      0.00000000
     10.88000000	     -0.66678784	    -34.23630988	      3.33212480	     -0.10070351	      0.87424947	     -1.20215585	     64.82651807	    -13.59068504	    -18.59476986	     38.03848749	      2.21362287	      7.67423534	      0.66389685	      3.21192201	     -0.80529298	      0.00000000	     61.08722259	    -10.79789760	    -21.14451973	     32.64866662	      2.25729020	     -6.62074305	      0.56982673	      1.09978018	      4.30510900	      0.00000000
     10.88500000	      0.08973215	    -34.00757480	      2.81084748	     -0.09950831	      0.87495951	     -1.20191167	     63.92852968	    -13.74967246	    -20.11148443	     37.65304479	      2.17539567	      7.84615544	      0.65716960	      3.27022943	     -0.70881910	      0.00000000	     61.08367605	    -10.60891392	    -19.63975190	     32.54697399	      2.29764523	     -6.27457717	      0.56805186	      0.98780738	      4.28938549	      0.00000000
     10.89000000	     -0.82957337	    -33.84431146	      2.99541840	     -0.09890497	      0.87519036	     -1.20155802	     64.02619716	    -13.19587638	    -18.82111115	     37.61404200	      2.09549432	      7.54874335	      0.65648888	      3.20368880	     -0.73535687	      0.00000000	     60.46520195	    -11.04042466	    -20.88115781	     32.45836194	      2.35677553	     -6.38407434	      0.56650529	      1.12834701	      4.46297496	      0.00000000
     10.89500000	     -0.48876821	    -33.64112106	      2.61932323	     -0.09778318	      0.87582972	     -1.20132296	     63.36949269	    -13.15155087	    -19.71017878	     37.28846174	      2.01049039	      7.62613880	      0.65080643	      3.20982763	     -0.62716927	      0.00000000	     60.33109331	    -11.02038079	    -20.07639142	     32.38079424	      2.36973158	     -6.17718884	      0.56515147	      1.12883367	      4.52287249	      0.00000000
     10.90000000	     -0.32866448	    -33.30713381	      2.82676443	     -0.09667040	      0.87638101	     -1.20151047	     62.89509427	    -13.36522338	    -19.77465487	     37.19664954	      1.99674493	      7.60476031	      0.64920401	      3.30510784	     -0.44740129	      0.00000000	     59.75668177	    -10.70679880	    -20.06660146	     32.04897834	      2.34602145	     -6.08512961	      0.55936019	      1.02000477	      4.45880532	      0.00000000
